<?xml version="1.0" encoding="UTF-8"?> <!-- Generator: Adobe Illustrator 23.0.3, SVG Export Plug-In . SVG Version: 6.00 Build 0) --> <svg xmlns="http://www.w3.org/2000/svg" xmlns:xlink="http://www.w3.org/1999/xlink" version="1.1" id="Ebene_1" x="0px" y="0px" viewBox="0 0 168 94" style="enable-background:new 0 0 168 94;" xml:space="preserve"> <style type="text/css"> .st0{fill:#000000;} </style> <g> <path class="st0" d="M113.29,21.85c-0.01-0.85-0.63-1.19-0.63-1.19l-0.57-0.32c-8.98-5.21-16.54-6.51-16.54-6.51 c-11.36-2.68-21.61-0.37-21.61-0.37c-10.48,2.08-17.42,6.35-17.97,6.7c0,0,0,0,0,0c-0.02,0.01-0.15,0.08-0.71,0.4 c-0.96,0.55-0.85,1.61-0.85,1.61V49c0,4.53,0.78,6.51,0.78,6.51c1.88,8.48,10.84,15.84,10.84,15.84 c6.71,6.19,17.27,10.54,17.27,10.54c0.33,0.13,0.58,0.11,0.58,0.11c0.39-0.01,0.69-0.19,0.69-0.19l1.58-0.69 c19.64-8.79,24.75-21.16,24.75-21.16c2.65-4.8,2.4-10.82,2.4-10.82L113.29,21.85z M64.68,65.04c0,0-6.75-6.91-6.75-16.92V28.07 h13.66v43.18C69.5,69.6,67.18,67.56,64.68,65.04z M104.32,63.52c-0.79,0.88-1.58,1.71-2.37,2.5L90.31,48.04h0l-1.14-1.79 l-3.18,4.14l12.3,19.02c-4.31,3.62-8.86,6.26-14.51,8.56V59.67l0.06-6.89l-4.93,6.61v16.66c-0.7-0.36-1.47-0.79-2.3-1.3V28.07H91 l4.03-4.99H91h-0.21H57.93l0.59-0.25c0,0,10.02-6.49,24.49-6.89c0,0,7.54-0.6,18.41,3.22l-17.58,22.3v7.99l22.38-28.39 c1.21,0.53,2.46,1.12,3.73,1.77l-0.06,25.51C109.89,48.34,110.6,56.59,104.32,63.52z"></path> <polygon class="st0" points="85.77,35.31 89.82,30.25 85.77,30.25 85.59,30.25 83.84,30.25 80.72,30.25 78.89,30.25 78.89,47.73 78.89,47.73 78.89,55.73 83.84,49.45 83.84,41.46 83.84,41.46 83.84,35.31 "></polygon> <path class="st0" d="M115.17,18.79c0,0-14.47-9.8-32.82-9.09c0,0-15.03-0.12-29.83,9.06c0,0-0.95,0.53-0.83,2.4l0.06,28.14 c0,0-0.09,5.59,1.55,9.35c0,0,1.5,6.85,11.37,15.09c0,0,7.44,6.66,17.74,10.83c0,0,0.93,0.5,1.5,0.5c0.05,0,0.2,0.11,1.38-0.48 c0,0,7.26-3.14,11.62-6.23c0,0,8.41-5.24,12.58-11.22c0,0,5.47-5.44,6.33-14.68c0,0,0.15-2.72,0.18-4.65v-27.7 C116,20.12,116.04,19.28,115.17,18.79z M114.88,21.03v26.71c-0.03,1.85-0.17,4.48-0.17,4.48c-0.83,8.9-6.11,14.16-6.11,14.16 c-4.02,5.77-12.13,10.82-12.13,10.82c-4.2,2.99-11.21,6.01-11.21,6.01c-1.14,0.57-1.28,0.47-1.33,0.47c-0.55,0-1.45-0.48-1.45-0.48 c-9.93-4.02-17.11-10.45-17.11-10.45c-9.51-7.95-10.96-14.56-10.96-14.56c-1.58-3.62-1.5-9.02-1.5-9.02l-0.06-27.14 c-0.11-1.8,0.8-2.31,0.8-2.31c14.27-8.85,28.77-8.73,28.77-8.73c17.69-0.69,31.65,8.76,31.65,8.76 C114.92,20.22,114.88,21.03,114.88,21.03z"></path> </g> </svg> 