<?xml version="1.0" encoding="UTF-8"?> <!-- Generator: Adobe Illustrator 23.0.3, SVG Export Plug-In . SVG Version: 6.00 Build 0) --> <svg xmlns="http://www.w3.org/2000/svg" xmlns:xlink="http://www.w3.org/1999/xlink" version="1.1" id="Ebene_1" x="0px" y="0px" viewBox="0 0 169 143" style="enable-background:new 0 0 169 143;" xml:space="preserve"> <style type="text/css"> .st0{fill:#000000;} </style> <g> <g> <path class="st0" d="M1,116.26v-14.51c0-0.2,0.1-0.4,0.4-0.4h2.29c0.2,0,0.4,0.1,0.4,0.4v5.96c0,0.1,0,0.1,0.1,0.1h0.1l4.97-6.16 c0.1-0.1,0.3-0.2,0.5-0.2h2.58c0.1,0,0.2,0,0.2,0.1c0.1,0,0.1,0.1,0.1,0.2c0,0.1,0,0.1-0.1,0.2L7.76,108c0,0,0,0.1,0,0.2 l5.07,8.15c0,0.1,0.1,0.1,0.1,0.2c0,0.2-0.1,0.2-0.3,0.2H9.85c-0.2,0-0.3-0.1-0.4-0.2l-3.78-6.16c0,0,0-0.1-0.1-0.1 c0,0-0.1,0-0.1,0.1l-1.29,1.69c0,0.1-0.1,0.1-0.1,0.2v4.18c0,0.2-0.1,0.4-0.4,0.4H1.4C1.1,116.65,1,116.55,1,116.26z"></path> <path class="st0" d="M36.29,116.35l-0.6-1.99c0-0.1-0.1-0.1-0.1-0.1h-5.37c-0.1,0-0.1,0-0.1,0.1l-0.6,1.99 c-0.1,0.2-0.2,0.3-0.4,0.3h-2.49c-0.1,0-0.2,0-0.3-0.1c-0.1-0.1-0.1-0.2,0-0.3l4.67-14.51c0.1-0.2,0.2-0.3,0.4-0.3h3.18 c0.2,0,0.3,0.1,0.4,0.3l4.67,14.51v0.1c0,0.1,0,0.2-0.1,0.2c-0.1,0.1-0.1,0.1-0.2,0.1h-2.49 C36.49,116.65,36.39,116.55,36.29,116.35z M29.63,99.75c-0.3-0.3-0.4-0.7-0.4-1.09s0.1-0.8,0.4-1.09c0.3-0.3,0.7-0.4,1.09-0.4 c0.5,0,0.8,0.1,1.09,0.4s0.4,0.7,0.4,1.09c0,0.5-0.1,0.8-0.4,1.09c-0.3,0.3-0.6,0.5-0.99,0.5 C30.33,100.25,29.93,100.05,29.63,99.75z M30.92,111.88h3.88c0.1,0,0.1-0.1,0.1-0.2l-1.99-6.66c0-0.1,0-0.1-0.1-0.1 c0,0-0.1,0-0.1,0.1l-1.89,6.66C30.82,111.78,30.82,111.88,30.92,111.88z M33.8,99.85c-0.3-0.3-0.4-0.6-0.4-1.09 c0-0.5,0.1-0.8,0.4-1.09s0.7-0.4,1.09-0.4c0.5,0,0.8,0.1,1.09,0.4s0.4,0.7,0.4,1.09c0,0.5-0.1,0.8-0.4,1.09s-0.7,0.4-1.09,0.4 C34.5,100.25,34.1,100.05,33.8,99.85z"></path> <path class="st0" d="M54.78,116.26c-0.89-0.4-1.49-0.89-1.99-1.59c-0.5-0.7-0.7-1.49-0.7-2.39v-0.4c0-0.2,0.1-0.4,0.4-0.4h2.29 c0.2,0,0.4,0.1,0.4,0.3v0.3c0,0.6,0.3,1.09,0.8,1.49c0.5,0.4,1.19,0.6,2.09,0.6c0.8,0,1.29-0.2,1.69-0.5s0.6-0.7,0.6-1.19 c0-0.3-0.1-0.6-0.3-0.89c-0.2-0.2-0.5-0.5-0.89-0.6c-0.4-0.2-0.99-0.4-1.89-0.8c-0.99-0.3-1.79-0.7-2.49-0.99 c-0.7-0.4-1.19-0.8-1.69-1.39c-0.5-0.6-0.7-1.39-0.7-2.19c0-0.89,0.2-1.59,0.7-2.29c0.5-0.7,1.09-1.19,1.89-1.49 s1.69-0.5,2.78-0.5c1.09,0,2.09,0.2,2.98,0.6c0.89,0.4,1.59,0.89,1.99,1.69c0.4,0.8,0.7,1.49,0.7,2.49v0.2c0,0.2-0.1,0.4-0.4,0.4 h-2.29c-0.2,0-0.4-0.1-0.4-0.2v-0.2c0-0.6-0.3-1.09-0.8-1.59c-0.5-0.4-1.19-0.6-2.09-0.6c-0.7,0-1.19,0.1-1.59,0.4 c-0.4,0.3-0.6,0.7-0.6,1.19c0,0.4,0.1,0.7,0.3,0.89c0.2,0.2,0.5,0.5,0.99,0.7c0.4,0.2,1.09,0.5,2.09,0.8 c0.99,0.4,1.79,0.7,2.39,0.99s1.09,0.7,1.59,1.29c0.5,0.6,0.7,1.29,0.7,2.29c0,0.89-0.2,1.69-0.7,2.29 c-0.5,0.7-1.09,1.19-1.89,1.59s-1.79,0.5-2.98,0.5C56.57,116.85,55.57,116.65,54.78,116.26z"></path> <path class="st0" d="M87.68,104.13h-6.96c-0.1,0-0.1,0-0.1,0.1v3.28c0,0.1,0,0.1,0.1,0.1h4.57c0.2,0,0.4,0.1,0.4,0.4v1.89 c0,0.2-0.1,0.4-0.4,0.4h-4.57c-0.1,0-0.1,0-0.1,0.1v3.48c0,0.1,0,0.1,0.1,0.1h6.96c0.2,0,0.4,0.1,0.4,0.4v1.89 c0,0.2-0.1,0.4-0.4,0.4h-9.84c-0.2,0-0.4-0.1-0.4-0.4v-14.51c0-0.2,0.1-0.4,0.4-0.4h9.84c0.2,0,0.4,0.1,0.4,0.4v1.89 C88.08,103.93,87.98,104.13,87.68,104.13z"></path> <path class="st0" d="M102.3,116.26v-14.51c0-0.2,0.1-0.4,0.4-0.4h2.29c0.2,0,0.4,0.1,0.4,0.4v12.13c0,0.1,0,0.1,0.1,0.1h6.96 c0.2,0,0.4,0.1,0.4,0.4v1.89c0,0.2-0.1,0.4-0.4,0.4h-9.84C102.4,116.65,102.3,116.55,102.3,116.26z"></path> <path class="st0" d="M129.04,116.26c-0.89-0.5-1.49-1.09-1.99-1.99c-0.5-0.8-0.7-1.79-0.7-2.88v-4.67c0-1.09,0.2-1.99,0.7-2.88 c0.5-0.8,1.19-1.49,1.99-1.89c0.8-0.4,1.89-0.7,2.98-0.7c1.19,0,2.19,0.2,2.98,0.7c0.89,0.5,1.49,1.09,1.99,1.89 c0.5,0.8,0.7,1.79,0.7,2.88v4.67c0,1.09-0.2,2.09-0.7,2.88c-0.5,0.8-1.19,1.49-1.99,1.99c-0.89,0.5-1.89,0.7-2.98,0.7 C130.83,116.95,129.83,116.65,129.04,116.26z M133.91,113.57c0.5-0.5,0.7-1.19,0.7-1.99v-4.77c0-0.8-0.2-1.49-0.7-1.99 s-1.09-0.8-1.99-0.8c-0.8,0-1.39,0.3-1.89,0.8s-0.7,1.19-0.7,1.99v4.77c0,0.8,0.2,1.49,0.7,1.99s1.09,0.8,1.89,0.8 C132.71,114.37,133.41,114.07,133.91,113.57z"></path> <path class="st0" d="M154.39,116.35l-3.78-14.51v-0.1c0-0.2,0.1-0.3,0.3-0.3h2.49c0.2,0,0.3,0.1,0.4,0.3l2.09,8.65 c0,0.1,0,0.1,0.1,0.1c0.1,0,0.1,0,0.1-0.1l1.99-8.65c0-0.2,0.2-0.3,0.4-0.3h2.49c0.2,0,0.4,0.1,0.4,0.3l2.09,8.65 c0,0.1,0,0.1,0.1,0.1s0.1,0,0.1-0.1l1.99-8.65c0-0.2,0.2-0.3,0.4-0.3h2.39c0.1,0,0.2,0,0.3,0.1s0.1,0.2,0,0.3l-3.48,14.51 c0,0.2-0.2,0.3-0.4,0.3h-2.39c-0.2,0-0.4-0.1-0.4-0.3l-2.19-9.24c0-0.1,0-0.1-0.1-0.1s-0.1,0-0.1,0.1l-1.99,9.24 c0,0.2-0.2,0.3-0.4,0.3h-2.19C154.58,116.65,154.49,116.55,154.39,116.35z"></path> <path class="st0" d="M18.5,141.6c-0.89-0.5-1.49-1.09-1.99-1.89c-0.5-0.8-0.7-1.69-0.7-2.78v-4.87c0-1.09,0.2-1.99,0.7-2.78 c0.5-0.8,1.09-1.39,1.99-1.89s1.89-0.7,2.98-0.7c1.09,0,2.09,0.2,2.88,0.7c0.89,0.4,1.49,0.99,1.99,1.79 c0.5,0.8,0.7,1.59,0.7,2.49l0,0c0,0.2-0.1,0.4-0.4,0.4h-2.29c-0.1,0-0.2,0-0.3-0.1c-0.1,0-0.1-0.1-0.1-0.1v-0.2 c0-0.7-0.2-1.19-0.7-1.69s-1.09-0.7-1.89-0.7s-1.39,0.2-1.89,0.7c-0.5,0.5-0.7,1.09-0.7,1.89v5.07c0,0.8,0.3,1.39,0.8,1.89 s1.19,0.7,1.89,0.7c0.8,0,1.39-0.2,1.79-0.6c0.5-0.4,0.7-0.99,0.7-1.69v-0.99c0-0.1,0-0.1-0.1-0.1h-2.29c-0.2,0-0.4-0.1-0.4-0.4 v-1.79c0-0.2,0.1-0.4,0.4-0.4h5.07c0.2,0,0.4,0.1,0.4,0.4v2.78c0,1.09-0.2,2.09-0.7,2.88c-0.5,0.8-1.09,1.39-1.99,1.89 c-0.89,0.4-1.79,0.6-2.98,0.6C20.29,142.3,19.29,142,18.5,141.6z"></path> <path class="st0" d="M49.31,141.8l-2.68-5.87c0-0.1-0.1-0.1-0.2-0.1h-1.99c-0.1,0-0.1,0-0.1,0.1v5.77c0,0.2-0.1,0.4-0.4,0.4h-2.29 c-0.2,0-0.4-0.1-0.4-0.4v-14.51c0-0.2,0.1-0.4,0.4-0.4h6.06c0.89,0,1.79,0.2,2.49,0.6s1.29,0.89,1.59,1.59 c0.4,0.7,0.6,1.49,0.6,2.39c0,0.99-0.2,1.79-0.7,2.58c-0.5,0.8-1.19,1.19-2.09,1.49c0,0-0.1,0-0.1,0.1c0,0.1,0,0.1,0,0.1 l2.88,5.96c0,0.1,0.1,0.1,0.1,0.2s0,0.1-0.1,0.2c-0.1,0-0.1,0.1-0.2,0.1h-2.49C49.51,142.1,49.41,142,49.31,141.8z M44.34,129.68 v3.68c0,0.1,0,0.1,0.1,0.1h2.78c0.6,0,1.09-0.2,1.49-0.5c0.4-0.4,0.6-0.8,0.6-1.39s-0.2-1.09-0.6-1.39c-0.4-0.4-0.89-0.6-1.49-0.6 h-2.78C44.44,129.48,44.34,129.58,44.34,129.68z"></path> <path class="st0" d="M69.29,141.6c-0.89-0.4-1.49-1.09-1.99-1.79c-0.5-0.8-0.7-1.69-0.7-2.68v-9.84c0-0.2,0.1-0.4,0.4-0.4h2.29 c0.2,0,0.4,0.1,0.4,0.4v9.84c0,0.8,0.2,1.39,0.7,1.89c0.5,0.5,1.09,0.7,1.89,0.7c0.8,0,1.39-0.2,1.89-0.7 c0.5-0.5,0.7-1.09,0.7-1.89v-9.84c0-0.2,0.1-0.4,0.4-0.4h2.29c0.2,0,0.4,0.1,0.4,0.4v9.84c0,0.99-0.2,1.89-0.7,2.68 c-0.5,0.8-1.09,1.39-1.99,1.79c-0.89,0.4-1.79,0.7-2.98,0.7S70.19,142.1,69.29,141.6z"></path> <path class="st0" d="M101.3,127.49c0.7,0.4,1.29,0.99,1.69,1.69c0.4,0.7,0.6,1.49,0.6,2.49c0,0.89-0.2,1.69-0.6,2.39 s-0.99,1.19-1.69,1.59c-0.8,0.4-1.59,0.6-2.58,0.6h-3.08c-0.1,0-0.1,0-0.1,0.1v5.37c0,0.2-0.1,0.4-0.4,0.4h-2.29 c-0.2,0-0.4-0.1-0.4-0.4v-14.51c0-0.2,0.1-0.4,0.4-0.4h6.06C99.71,126.89,100.51,127.09,101.3,127.49z M99.91,133.15 c0.4-0.4,0.6-0.89,0.6-1.49s-0.2-1.19-0.6-1.59c-0.4-0.4-0.89-0.6-1.59-0.6h-2.78c-0.1,0-0.1,0-0.1,0.1v3.98c0,0.1,0,0.1,0.1,0.1 h2.78C98.92,133.75,99.51,133.55,99.91,133.15z"></path> <path class="st0" d="M126.25,127.49c0.7,0.4,1.29,0.99,1.69,1.69c0.4,0.7,0.6,1.49,0.6,2.49c0,0.89-0.2,1.69-0.6,2.39 s-0.99,1.19-1.69,1.59c-0.8,0.4-1.59,0.6-2.58,0.6h-3.08c-0.1,0-0.1,0-0.1,0.1v5.37c0,0.2-0.1,0.4-0.4,0.4h-2.29 c-0.2,0-0.4-0.1-0.4-0.4v-14.51c0-0.2,0.1-0.4,0.4-0.4h6.06C124.76,126.89,125.56,127.09,126.25,127.49z M124.96,133.15 c0.4-0.4,0.6-0.89,0.6-1.49s-0.2-1.19-0.6-1.59s-0.89-0.6-1.59-0.6h-2.78c-0.1,0-0.1,0-0.1,0.1v3.98c0,0.1,0,0.1,0.1,0.1h2.78 C123.97,133.75,124.56,133.55,124.96,133.15z"></path> <path class="st0" d="M152.7,129.48h-6.96c-0.1,0-0.1,0-0.1,0.1v3.28c0,0.1,0,0.1,0.1,0.1h4.57c0.2,0,0.4,0.1,0.4,0.4v1.89 c0,0.2-0.1,0.4-0.4,0.4h-4.57c-0.1,0-0.1,0-0.1,0.1v3.48c0,0.1,0,0.1,0.1,0.1h6.96c0.2,0,0.4,0.1,0.4,0.4v1.89 c0,0.2-0.1,0.4-0.4,0.4h-9.84c-0.2,0-0.4-0.1-0.4-0.4v-14.51c0-0.2,0.1-0.4,0.4-0.4h9.84c0.2,0,0.4,0.1,0.4,0.4v1.89 C153.09,129.38,152.99,129.48,152.7,129.48z"></path> </g> <g> <path class="st0" d="M118.92,14.96c-0.01-0.98-0.73-1.38-0.73-1.38l-0.66-0.37c-10.4-6.04-19.16-7.54-19.16-7.54 C85.22,2.56,73.35,5.24,73.35,5.24C61.2,7.65,53.17,12.6,52.53,13.01c0,0,0,0,0,0c-0.02,0.01-0.17,0.09-0.82,0.46 c-1.11,0.64-0.99,1.86-0.99,1.86v31.08c0,5.25,0.9,7.54,0.9,7.54c2.18,9.82,12.56,18.35,12.56,18.35c7.77,7.18,20,12.21,20,12.21 c0.38,0.15,0.67,0.13,0.67,0.13c0.46-0.02,0.8-0.23,0.8-0.23l1.83-0.79c22.75-10.18,28.68-24.51,28.68-24.51 c3.07-5.56,2.78-12.53,2.78-12.53L118.92,14.96z M62.6,64.99c0,0-7.83-8-7.83-19.6V22.16H70.6v50.02 C68.18,70.28,65.5,67.92,62.6,64.99z M108.53,63.24c-0.92,1.02-1.84,1.98-2.75,2.9L92.3,45.3h0l-1.32-2.07l-3.69,4.79l14.25,22.03 c-4.99,4.2-10.27,7.25-16.81,9.91V58.77l0.07-7.99l-5.71,7.65v19.31c-0.81-0.42-1.7-0.92-2.67-1.5V22.16h16.67l4.67-5.78h-4.67 h-0.24H54.78l0.68-0.29c0,0,11.61-7.52,28.37-7.98c0,0,8.73-0.7,21.33,3.73L84.8,37.68v9.26l25.93-32.89 c1.41,0.62,2.85,1.3,4.32,2.05l-0.07,29.55C114.98,45.65,115.81,55.2,108.53,63.24z"></path> <polygon class="st0" points="87.04,30.55 91.73,24.69 87.04,24.69 86.83,24.69 84.8,24.69 81.18,24.69 79.07,24.69 79.07,44.95 79.07,44.95 79.07,54.2 84.8,46.93 84.8,37.68 84.8,37.68 84.8,30.55 "></polygon> <path class="st0" d="M121.1,11.41c0,0-16.77-11.35-38.02-10.53c0,0-17.42-0.14-34.56,10.49c0,0-1.1,0.62-0.96,2.78l0.07,32.61 c0,0-0.1,6.48,1.8,10.83c0,0,1.74,7.93,13.17,17.49c0,0,8.62,7.71,20.55,12.55c0,0,1.07,0.58,1.74,0.58c0.06,0,0.23,0.13,1.6-0.56 c0,0,8.41-3.63,13.46-7.22c0,0,9.74-6.07,14.57-13c0,0,6.34-6.31,7.34-17.01c0,0,0.17-3.15,0.21-5.38V12.95 C122.06,12.95,122.1,11.98,121.1,11.41z M120.77,14v30.95c-0.03,2.15-0.2,5.19-0.2,5.19c-0.96,10.32-7.08,16.4-7.08,16.4 c-4.66,6.68-14.05,12.53-14.05,12.53c-4.87,3.46-12.98,6.97-12.98,6.97c-1.32,0.66-1.49,0.54-1.54,0.54 c-0.64,0-1.68-0.56-1.68-0.56c-11.51-4.66-19.82-12.1-19.82-12.1c-11.02-9.21-12.7-16.86-12.7-16.86 c-1.83-4.2-1.74-10.45-1.74-10.45l-0.07-31.45c-0.13-2.08,0.93-2.68,0.93-2.68C66.37,2.23,83.17,2.36,83.17,2.36 c20.5-0.79,36.67,10.15,36.67,10.15C120.81,13.07,120.77,14,120.77,14z"></path> </g> </g> </svg> 